<svg width="280" height="250" xmlns="http://www.w3.org/2000/svg">

 <g>
  <title>background</title>
  <rect fill="none" id="canvas_background" height="252" width="282" y="-1" x="-1"/>
 </g>
 <g>
  <title>Layer 1</title>
  <g id="svg_1" text-anchor="start" font-size="12" font-weight="normal" font-family="sans-serif" stroke-dashoffset="0" stroke-miterlimit="10" fill="#67a1a1">
   <g id="svg_2">
    <g id="svg_3">
     <g id="svg_4">
      <g id="svg_5">
       <path id="svg_6" d="m23.00568,216.39273l1.36304,-17.89428l-2.86588,-0.699l0.17475,-1.22324l4.26387,0.17475l2.27173,0l0,0.699l5.45216,13.59546l1.57274,4.57842l0.0699,0l1.39799,-4.33377l5.52206,-13.8401l0,-0.699l2.09699,0l4.78812,-0.17475l-0.0699,1.22324l-2.90083,0.699l1.53779,17.47488l0.6291,3.56488l2.37658,0.6291l-0.17475,1.22324l-4.26387,-0.17475l-4.78812,0.17475l0.0699,-1.22324l2.51638,-0.59415l0.10485,-3.25033l-0.31455,-5.24246l-0.97859,-10.48493l-0.17475,0l-1.36304,4.26387l-5.69681,14.7488l0.5592,1.60769l-1.67759,0.699l-0.66405,-1.64264l-6.50066,-15.51769l-1.36304,-4.15902l-0.1398,0l-0.73394,11.28877l-0.1398,4.57842l0.0699,3.04063l2.55133,0.699l-0.17475,1.22324l-3.66972,-0.2097l-3.73962,0.17475l0.0699,-1.22324l2.41153,-0.699l0.52425,-3.07558l0,-0.00002z"/>
       <path id="svg_7" d="m67.84622,196.22672l5.27741,2.93578l2.55133,4.26387l0.73394,5.76671l-1.78244,7.26955l-4.61337,4.40367l-5.31236,1.18829l-5.66186,-1.25819l-4.33377,-4.47357l-1.15334,-3.28528l-0.4194,-6.43076l1.50284,-4.57842l2.51638,-3.52993l5.17256,-2.27173l5.52206,0m-3.11051,24.08039l4.15902,-0.699l3.00568,-5.52206l0.699,-4.82307l-0.52425,-4.61337l-1.71254,-4.01922l-3.70467,-2.83093l-4.50852,0.31455l-3.18043,2.79598l-0.90869,2.13194l-0.80384,3.00568l0.1398,6.92005l2.79598,5.31236l4.54347,2.02709l-0.00001,0z"/>
       <path id="svg_8" d="m99.9301,218.76931l-3.49498,2.37658l-6.64045,0.76889l-6.6055,-3.14548l-2.48143,-4.50852l-0.699,-4.50852l0,-3.56488l1.88729,-4.57842l4.50852,-4.26387l4.78812,-1.32809l3.91437,0l5.34731,1.36304l-0.6291,1.78244l-0.4893,4.22892l-1.32809,0.10485l-0.80384,-4.89297l-2.58628,-0.66405l-4.19397,0l-5.24246,4.47357l-1.15334,5.73176l0.4893,5.31236l2.02709,3.73962l3.63478,2.86588l5.69681,-0.4893l3.25033,-1.95719l0.80384,1.15334l-0.00002,0.00004z"/>
       <path id="svg_9" d="m113.70031,207.62034l8.21319,11.53342l3.35518,1.01354l-0.17475,1.39799l-4.26387,-0.3495l-5.31236,0.3495l0.0699,-1.39799l2.62123,-0.66405l-1.39799,-2.44648l-4.99782,-7.1647l-2.79598,0.3495l0.17475,9.22674l2.86588,0.699l-0.17475,1.39799l-4.26387,-0.3495l-4.78812,0.3495l0.0699,-1.39799l2.90083,-0.699l0.24465,-9.99563l-0.2796,-10.97422l-2.76103,-0.699l0.17475,-1.39799l4.26387,0.3495l4.78812,-0.3495l-0.0699,1.39799l-2.93578,0.699l-0.24465,10.13543l2.06204,-0.31455l6.11621,-7.7239l1.15334,-2.23678l-2.20183,-0.5592l0.17475,-1.39799l4.33377,0.3495l3.63478,-0.3495l-0.0699,1.39799l-3.35518,1.15334l-7.12975,8.66754l-0.00001,0z"/>
       <path id="svg_10" d="m138.23504,219.01396l1.36304,-1.88729l-0.0699,-3.11053l-1.57274,-1.67759l-8.87724,-4.92792l-1.60769,-3.77457l0.31455,-3.28528l1.99214,-2.69113l4.85802,-1.60769l5.34731,0.4194l1.64264,-0.1398l-0.2796,1.78244l0.03495,4.57842l-1.29314,0.2796l-0.90869,-4.61337l-4.12407,-0.5592l-3.52993,1.32809l-0.80384,2.30668l0.76889,2.97073l8.80734,4.82307l2.58628,2.69113l0.1398,5.52206l-2.69113,3.35518l-5.13761,1.11839l-6.46571,-0.76889l-1.64264,-0.24465l0.2796,-1.36304l0.31455,-4.57842l1.29314,-0.2796l0.5592,4.61337l4.26387,0.73394l4.43862,-1.01354l-0.00001,0.00001z"/>
       <path id="svg_11" d="m152.52949,209.68238l0.2796,10.20533l10.10048,-0.24465l1.04849,-4.64832l1.22324,0.31455l0.1398,4.33377l0.24465,1.92224l-4.22892,-0.3495l-10.27523,0l-4.78812,0.3495l0.0699,-1.22324l2.79598,-0.87374l0.3495,-10.72958l-0.3495,-10.24028l-2.83093,-0.83879l0.17475,-1.22324l4.40367,0.31455l10.06553,0l3.39013,-0.3495l-0.31455,1.71254l-0.0699,4.57842l-1.25819,0.2796l-0.90869,-4.64832l-8.98209,-0.2796l-0.2796,9.82088l6.8152,-0.2097l0.66405,-3.32023l1.39799,0.45435l-0.3495,3.98427l0.3495,4.22892l-1.39799,-0.2097l-0.66405,-3.46003l-6.8152,0.3495z"/>
       <path id="svg_12" d="m174.86239,210.10177l0.3495,9.36654l3.39013,0.699l-0.17475,1.39799l-4.96287,-0.3495l-4.78812,0.3495l0.0699,-1.39799l2.90083,-0.699l0.24465,-8.94714l-0.17475,-12.02272l-2.86588,-0.699l0.17475,-1.39799l4.26387,0.3495l4.68327,-0.38445l2.86588,0.2097l2.83093,0.90869l2.76103,2.09699l0.87374,3.59983l-0.6291,3.87942l-2.13194,1.53779l-2.30668,0.66405l4.99782,10.58978l2.72608,0l0.2097,1.15334l-4.08912,0.83879l-2.27173,-1.85234l-4.33377,-9.96068l-1.08344,0.2796l-3.52993,-0.2097m0.24464,-11.77807l-0.2097,10.24028l3.07558,0.17475l4.71822,-1.78244l1.01354,-3.04063l-0.73394,-3.21538l-2.76103,-2.69113l-5.10266,0.31455l-0.00001,0z"/>
       <path id="svg_13" d="m210.44124,202.44778l-5.97641,17.50983l-1.43294,2.13194l-1.15334,0.1398l-0.73394,-3.21538l-3.59983,-9.71603l-3.18043,-7.5142l-1.78244,-3.35518l-2.30668,-0.6291l0.17475,-1.39799l4.78812,0.3495l4.64832,-0.3495l-0.0699,1.39799l-2.44648,0.5592l0.699,3.00568l4.15902,10.79948l1.36304,5.48711l0.0699,0l1.92224,-5.94146l3.52993,-10.51988l0.5592,-2.79598l-2.41153,-0.59415l0.17475,-1.39799l3.59983,0.3495l3.77457,-0.3495l-0.0699,1.39799l-2.48143,0.6291l-1.81739,4.01922l-0.00003,0z"/>
       <path id="svg_14" d="m222.35911,209.68238l0.2796,10.20533l10.10048,-0.24465l1.04849,-4.64832l1.22324,0.31455l0.1398,4.33377l0.24465,1.92224l-4.22892,-0.3495l-10.27523,0l-4.78812,0.3495l0.0699,-1.22324l2.79598,-0.87374l0.3495,-10.72958l-0.3495,-10.24028l-2.83093,-0.83879l0.17475,-1.22324l4.40367,0.31455l10.06553,0l3.39013,-0.3495l-0.31455,1.71254l-0.0699,4.57842l-1.25819,0.2796l-0.90869,-4.64832l-8.98209,-0.2796l-0.2796,9.82088l6.8152,-0.2097l0.66405,-3.32023l1.39799,0.45435l-0.3495,3.98427l0.3495,4.22892l-1.39799,-0.2097l-0.66405,-3.46003l-6.8152,0.3495z"/>
       <path id="svg_15" d="m244.69201,210.10177l0.3495,9.36654l3.39013,0.699l-0.17475,1.39799l-4.96287,-0.3495l-4.78812,0.3495l0.0699,-1.39799l2.90083,-0.699l0.24465,-8.94714l-0.17475,-12.02272l-2.86588,-0.699l0.17475,-1.39799l4.26387,0.3495l4.68327,-0.38445l2.86588,0.2097l2.83093,0.90869l2.76103,2.09699l0.87374,3.59983l-0.6291,3.87942l-2.13194,1.53779l-2.30668,0.66405l4.99782,10.58978l2.72608,0l0.2097,1.15334l-4.08912,0.83879l-2.27173,-1.85234l-4.33377,-9.96068l-1.08344,0.2796l-3.52993,-0.2097m0.24464,-11.77807l-0.2097,10.24028l3.07558,0.17475l4.71822,-1.78244l1.01354,-3.04063l-0.73394,-3.21538l-2.76103,-2.69113l-5.10266,0.31455l-0.00001,0z"/>
      </g>
     </g>
    </g>
   </g>
   <g id="svg_16">
    <g id="svg_17">
     <path id="svg_18" d="m62.80638,143.99089l8.52847,-111.96355l-17.93166,-4.37358l1.09339,-7.65376l26.67882,1.09339l14.21412,0l0,4.37358l34.1139,85.06606l9.84055,28.64692l0.43736,0l8.74715,-27.11617l34.55125,-86.59681l0,-4.37358l13.12073,0l29.959,-1.09339l-0.43736,7.65376l-18.15034,4.37358l9.62187,109.33941l3.93622,22.30524l14.87016,3.93622l-1.09339,7.65376l-26.67882,-1.09339l-29.959,1.09339l0.43736,-7.65376l15.74487,-3.71754l0.65604,-20.33713l-1.96811,-32.80182l-6.12301,-65.60364l-1.09339,0l-8.52847,26.67882l-35.64465,92.28246l3.49886,10.05923l-10.49658,4.37358l-4.1549,-10.2779l-40.67426,-97.09339l-8.52847,-26.02278l-0.87472,0l-4.59226,70.63326l-0.87472,28.64692l0.43736,19.02506l15.96355,4.37358l-1.09339,7.65376l-22.96128,-1.31207l-23.39863,1.09339l0.43736,-7.65376l15.08884,-4.37358l3.28018,-19.24374l0,-0.00003z"/>
    </g>
   </g>
  </g>
 </g>
</svg>